<?xml version="1.0" encoding="UTF-8"?><svg id="a" xmlns="http://www.w3.org/2000/svg" viewBox="0 0 150 150"><defs><style>.cls-1{fill:none;}.cls-2{fill:#a0f;}</style></defs><path class="cls-1" d="M0,0H150V150H0V0Z"/><path class="cls-2" d="M122.47,13.31c-11.17-4.63-24.02-2.06-32.57,6.48l-20.29,20.29c-.48-16.31-13.97-29.23-30.28-28.99-16.32,.23-29.44,13.51-29.46,29.83V112.19c0,12.09,7.27,22.98,18.44,27.61,11.17,4.63,24.02,2.07,32.57-6.48l20.29-20.29c.48,16.31,13.96,29.22,30.28,28.99,16.32-.23,29.43-13.51,29.46-29.83V40.93c0-12.09-7.28-22.98-18.44-27.61Zm-47.08,93.13c-16.51,0-29.89-13.38-29.89-29.89s13.38-29.89,29.89-29.89,29.89,13.38,29.89,29.89-13.38,29.89-29.89,29.89Z"/></svg>